<?xml version="1.0" encoding="utf-8"?>
<!-- Generator: Adobe Illustrator 23.1.1, SVG Export Plug-In . SVG Version: 6.00 Build 0)  -->
<svg version="1.1" id="Layer_1" xmlns="http://www.w3.org/2000/svg" xmlns:xlink="http://www.w3.org/1999/xlink" x="0px" y="0px"
	 viewBox="0 0 607.6 62" style="enable-background:new 0 0 607.6 62;" xml:space="preserve">
<style type="text/css">
	.st0{fill:#E5E0D8;}
</style>
<g id="logo" transform="translate(-81.514 -265.841)">
	<g id="Group_7" transform="translate(178.69 279.191)">
		<path id="Path_1" class="st0" d="M34.8,34.9l-9,2.6c0-1,0-2.8,0-5.2c0-2.5,0-5.7,0-9.9c-0.6,0-1.9,0-3.9,0s-3.6,0-4.9,0
			c-1.4,0-2.9,0-4.7,0c-1.8,0-2.9,0-3.4,0c0,3.8,0,7,0,9.5s0,4.4,0.1,5.6H0c0-1.3,0-3.3,0.1-5.9s0-7.3,0-13.8c0-2.1,0-4.6,0-7.5
			C0,7.3,0,6.9,0,3.7L9,1c0,2.6,0,5.1,0,7.3c0,2.3,0,4.5,0,6.7c0.5,0,1.5,0,3.1,0s3.2,0,5,0c1.5,0,3.2,0,5.1,0c1.9,0,3.1,0,3.7,0
			c0-2.1,0-4.3,0-6.7s0-4.8,0-7.3h9c0,3.1-0.1,6.3-0.1,9.8s0,6.3,0,8.5c0,4.6,0,8.5,0,11.6C34.8,34.1,34.8,33.6,34.8,34.9z"/>
		<path id="Path_2" class="st0" d="M53.6,37.5h-9c0-1.5,0-3.8,0.1-6.7c0-2.9,0-6.9,0-11.9c0-2.1,0-4.8,0-8c0-3.2,0-6.5-0.1-9.9h9
			c0,2.5,0,5.4-0.1,8.6s0,6.1,0,8.7c0,5.1,0,9.1,0,11.9C53.6,33,53.6,35.5,53.6,37.5z"/>
		<path id="Path_3" class="st0" d="M93.7,18.6c0,1.4,0,2.9-0.1,4.6s0,3.2,0,4.4c0,1.7,0,3.4,0,5.2c0,1.7,0,3.3,0,4.8
			c-0.8,0.1-1.7,0.2-2.5,0.2c-1.4,0.1-2.7,0.1-3.7,0.1c-3.7,0-7.5-0.4-11.1-1.3c-3.3-0.9-6.4-2.4-9.1-4.6c-3.9-3.1-6.2-7.8-6.1-12.8
			c0-2.9,0.8-5.8,2.3-8.2c1.7-2.5,3.9-4.6,6.5-6.1c2.5-1.5,5.3-2.5,8.1-3.2C81.6,1,85,0.6,88.5,0.7c0.5,0,0.9,0,1.3,0
			c0.4,0,0.7,0,1.1,0l1,7.6h-2.3c-2,0-4,0.2-5.9,0.5c-1.9,0.3-3.8,0.8-5.7,1.5c-2.1,0.8-4,2.2-5.4,4c-1.3,1.6-2,3.6-2,5.6
			c-0.1,2,0.5,4,1.6,5.7c1,1.5,2.4,2.8,4,3.6c1.3,0.7,2.7,1.2,4.2,1.5c1.6,0.4,3.2,0.6,4.8,0.6c0-0.3,0-1.6,0-3.7s0-5.1-0.1-9.1
			L93.7,18.6z"/>
		<path id="Path_4" class="st0" d="M136.8,34.9l-9,2.6c0-1,0-2.8,0-5.2c0-2.5,0-5.7,0-9.9c-0.6,0-1.9,0-3.9,0c-2,0-3.6,0-4.9,0
			c-1.4,0-2.9,0-4.7,0c-1.8,0-2.9,0-3.4,0c0,3.8,0,7,0,9.5s0,4.4,0.1,5.6h-9c0-1.3,0-3.3,0.1-5.9s0-7.3,0-13.8c0-2.1,0-4.6,0-7.5
			c0-2.9,0-3.4-0.1-6.6l9-2.6c0,2.6,0,5.1,0,7.3c0,2.3,0,4.5,0,6.7c0.5,0,1.5,0,3.1,0c1.5,0,3.2,0,5,0c1.5,0,3.2,0,5.1,0
			c1.9,0,3.1,0,3.7,0c0-2.1,0-4.3,0-6.7c0-2.3,0-4.8,0-7.3h9c0,3.1-0.1,6.3-0.1,9.8s0,6.3,0,8.5c0,4.6,0,8.5,0,11.6
			C136.7,34.1,136.8,33.6,136.8,34.9z"/>
		<path id="Path_5" class="st0" d="M174.8,14c0,2.6-0.8,5.1-2.3,7.1c-1.6,2.1-3.8,3.7-6.3,4.5c-1.6,0.6-3.3,1-5,1.3
			c-1.9,0.3-3.7,0.4-5.6,0.4l0.1,10.2h-9c0-1.7,0-3.9,0.1-6.8c0-2.9,0-7.2,0-12.9c0-2.1,0-4.5,0-7.5s0-6.1-0.1-9.3
			c0.9,0,1.8,0,2.9,0c1.1,0,2.1,0,3,0c3.1,0,6.2,0.1,9.3,0.5c2.1,0.3,4.1,0.9,6,1.8c2.1,0.9,3.9,2.4,5.2,4.3
			C174.2,9.5,174.8,11.7,174.8,14z M165.5,14.5c0-1.3-0.3-2.5-0.9-3.7c-0.7-1.1-1.7-2-2.9-2.5c-0.9-0.4-1.8-0.7-2.7-0.8
			c-1-0.1-2-0.2-3-0.1h-0.8c0,0.3,0,1.3,0,3.2s0,3.4,0,4.5v6.7h0.9c1,0,2-0.1,2.9-0.2c0.9-0.1,1.8-0.4,2.7-0.8
			c1.2-0.5,2.2-1.4,2.9-2.4C165.2,17.3,165.6,15.9,165.5,14.5z"/>
		<path id="Path_6" class="st0" d="M217.4,19.3c0,2.8-0.5,5.5-1.6,8c-1,2.4-2.5,4.6-4.4,6.3c-1.7,1.6-3.8,2.9-6.1,3.7
			c-2.3,0.8-4.7,1.2-7.2,1.2c-2.4,0-4.8-0.4-7.1-1.2c-2.2-0.8-4.2-1.9-5.9-3.5c-2-1.8-3.5-4-4.6-6.4c-1.1-2.6-1.7-5.5-1.7-8.3
			c0-2.6,0.4-5.2,1.4-7.7c0.9-2.4,2.4-4.5,4.2-6.3c1.7-1.7,3.8-3.1,6.1-3.9c2.4-0.9,5-1.4,7.6-1.4c2.5,0,5.1,0.4,7.4,1.3
			c2.2,0.8,4.3,2.1,6,3.7c1.9,1.8,3.4,4,4.4,6.4C217,13.9,217.5,16.6,217.4,19.3z M208.2,19.6c0-1.9-0.3-3.7-0.9-5.5
			c-0.6-1.7-1.5-3.2-2.8-4.5c-0.8-0.8-1.7-1.4-2.8-1.8c-2.2-0.9-4.7-0.9-6.9,0c-1.1,0.5-2.1,1.1-2.9,2c-1.2,1.2-2.1,2.6-2.6,4.2
			c-0.6,1.7-0.9,3.5-0.9,5.2c0,1.9,0.3,3.7,0.9,5.4c0.6,1.6,1.5,3,2.7,4.2c0.8,0.8,1.8,1.4,2.8,1.8c2.2,0.9,4.7,0.9,6.9,0
			c1.1-0.4,2-1.1,2.9-1.9c1.2-1.1,2.1-2.5,2.7-4.1C207.8,23.2,208.2,21.4,208.2,19.6L208.2,19.6z"/>
		<path id="Path_7" class="st0" d="M234,37.5h-9c0-1.5,0-3.8,0.1-6.7c0-2.9,0-6.9,0-11.9c0-2.1,0-4.8,0-8c0-3.2,0-6.5-0.1-9.9h9
			c0,2.5,0,5.4-0.1,8.6s0,6.1,0,8.7c0,5.1,0,9.1,0,11.9C233.9,33,233.9,35.5,234,37.5z"/>
		<path id="Path_8" class="st0" d="M278.6,1c0,3.2-0.1,6.3-0.1,9.5c0,3.2,0,5.7,0,7.5c0,4.1,0,7.8,0,11.1s0,5.3,0,6.2l-6.5,2.6
			c-4.6-6.1-8.9-11.6-12.8-16.3S253,14,252.1,13l-0.1,0.1c0,3.9,0,8.6,0.1,14.2c0,5.6,0.1,9,0.1,10.2h-8.4c0-0.9,0-2.9,0.1-6
			c0-3.1,0-6.9,0-11.5c0-1.9,0-4.3,0-7.2s0-6.1-0.1-9.5l7.1-2.8c0.8,1,3.2,3.9,7.1,8.8c3.9,4.9,8.1,9.8,12.3,14.8l0.1-0.1
			c0-2.5,0-6.2-0.1-11.2c-0.1-4.9-0.1-8.9-0.1-11.9L278.6,1z"/>
		<path id="Path_9" class="st0" d="M316.6,8.5c-0.8,0-2.2,0-4.4,0c-2.1,0-4.7,0-7.8,0c0,2.9-0.1,5.1-0.1,6.9c0,1.7,0,4,0,6.7
			c0,3.1,0,6.1,0,9c0,2.9,0,2.4,0.1,3.8l-9,2.6c0-1.4,0-3.4,0.1-6.2s0-5.9,0-9.3v-6.4c0-1.8,0-4.1-0.1-7.1c-3,0-5.6,0-8,0
			s-3.7,0-4.2,0V1.1c1.4,0,3.7,0,7,0s6.4,0,9.6,0c3.7,0,7.2,0,10.6,0c3.4,0,5.4,0,6.1,0L316.6,8.5z"/>
	</g>
	<path id="Path_98" class="st0" d="M514.6,293.5v-14.6h6.4c3.4,0,5.1,1.4,5.1,4.2c0,2.9-1.7,4.4-5.1,4.4h-3.5v6.1H514.6z
		 M517.6,284.7h4.1c1.2,0,1.8-0.6,1.8-1.6c0-1-0.6-1.5-1.8-1.5h-4.1L517.6,284.7z M529.8,293.5v-14.6l10.8,0v2.7h-7.8v3.1h5.9v2.7
		h-5.9v3.3h7.8v2.7H529.8z M547.9,284.7h4.1c1.2,0,1.8-0.6,1.8-1.6c0-1-0.6-1.5-1.8-1.5h-4.1V284.7z M553.8,287.1l3.7,6.4h-3.4
		l-3.5-6.1h-2.7v6.1H545v-14.6h6.4c3.4,0,5.1,1.4,5.1,4.2C556.5,285.2,555.6,286.6,553.8,287.1L553.8,287.1z M560.5,293.5v-14.6
		h10.3v2.7h-7.4v3.1h5.4v2.7h-5.4v6.1H560.5z M581,293.5c-2,0.1-3.8-0.7-5.2-2.1c-1.4-1.4-2.1-3.3-2.1-5.2c-0.1-2,0.7-3.8,2.1-5.2
		c1.4-1.4,3.3-2.2,5.2-2.1c2-0.1,3.8,0.7,5.2,2.1c1.4,1.4,2.2,3.3,2.1,5.2c0.1,2-0.7,3.8-2.1,5.2C584.8,292.8,582.9,293.6,581,293.5
		z M581,290.8c1.2,0,2.4-0.4,3.2-1.3c0.8-0.9,1.3-2.1,1.2-3.3c0-1.2-0.4-2.4-1.2-3.3c-0.8-0.9-2-1.4-3.2-1.3c-1.2,0-2.4,0.4-3.2,1.3
		c-0.8,0.9-1.3,2.1-1.2,3.3c0,1.2,0.4,2.4,1.2,3.3C578.6,290.3,579.8,290.8,581,290.8z M594.9,284.7h4.1c1.2,0,1.8-0.6,1.8-1.6
		c0-1-0.6-1.5-1.8-1.5h-4.1V284.7z M600.8,287.1l3.7,6.4h-3.4l-3.5-6.1h-2.7v6.1H592v-14.6h6.4c3.4,0,5.1,1.4,5.1,4.2
		C603.5,285.2,602.6,286.6,600.8,287.1L600.8,287.1z M607.5,293.5v-14.6h1l6.3,7.2l6.4-7.2h1v14.6h-2.9l0-8.5l-4.4,4.9l-4.4-4.9v8.5
		H607.5z M625.8,293.5l5.9-14.6h2.9l5.8,14.6l-3.1,0l-0.9-2.2h-6.6l-0.9,2.2H625.8z M633.2,282.8l-2.2,5.6h4.4L633.2,282.8z
		 M644.1,293.5v-14.6h1l9.2,9.2v-9.2h2.9v14.6h-1.1l-9.1-9.1v9.1H644.1z M668.3,293.5c-2,0-3.8-0.7-5.2-2.1
		c-1.4-1.4-2.2-3.3-2.1-5.2c0-1.9,0.7-3.8,2.1-5.2c1.4-1.4,3.3-2.1,5.2-2.1c2,0,3.9,0.7,5.4,2l-2,2.1c-1-0.8-2.2-1.2-3.4-1.2
		c-1.2,0-2.3,0.4-3.2,1.2c-0.8,0.8-1.2,2-1.2,3.1c-0.1,1.2,0.4,2.4,1.2,3.2c0.9,0.8,2,1.3,3.2,1.2c1.2,0,2.4-0.4,3.4-1.2l2,2.1
		C672.2,292.9,670.3,293.6,668.3,293.5z M678.3,293.5v-14.6l10.8,0v2.7h-7.8v3.1h5.9v2.7h-5.9v3.3h7.8v2.7H678.3z M528.1,312.5h-3.3
		l-1.2-1.5c-0.5,0.5-1.2,0.9-1.8,1.2c-0.7,0.3-1.5,0.4-2.3,0.4c-1.5,0.1-3-0.4-4-1.5c-0.7-0.7-1.1-1.7-1-2.7c0-0.9,0.3-1.8,0.8-2.5
		c0.7-0.8,1.5-1.5,2.5-1.9c-0.4-0.5-0.8-1.1-1.1-1.7c-0.2-0.5-0.3-1-0.3-1.5c0-0.9,0.4-1.7,1-2.2c0.8-0.7,1.9-1,3-0.9
		c1-0.1,2.1,0.3,2.9,0.9c0.6,0.6,1,1.4,1,2.3c0,0.6-0.2,1.2-0.5,1.7c-0.6,0.7-1.3,1.3-2.1,1.8l2,2.6c0.3-0.6,0.5-1.2,0.7-1.8
		l2.4,0.8c-0.2,0.7-0.4,1.3-0.6,1.9c-0.2,0.4-0.4,0.8-0.7,1.1L528.1,312.5z M520.1,302.8l0.7-0.6c0.4-0.2,0.7-0.7,0.7-1.2
		c0-0.3-0.1-0.6-0.3-0.9c-0.3-0.2-0.7-0.3-1-0.3c-0.3,0-0.7,0.1-1,0.3c-0.2,0.2-0.3,0.4-0.3,0.7c0,0.4,0.2,0.8,0.5,1.1L520.1,302.8z
		 M519,305.8c-0.6,0.3-1,0.7-1.4,1.1c-0.3,0.4-0.5,0.9-0.5,1.4c0,0.5,0.2,1.1,0.6,1.4c0.4,0.4,1,0.6,1.6,0.6c0.4,0,0.8-0.1,1.2-0.3
		c0.5-0.2,0.9-0.5,1.3-0.8L519,305.8z M543.4,303.7h4.1c1.2,0,1.8-0.6,1.8-1.6c0-1-0.6-1.5-1.8-1.5h-4.1V303.7z M549.3,306.1
		l3.7,6.4h-3.4l-3.5-6.1h-2.7v6.1h-2.9v-14.6h6.4c3.4,0,5.1,1.4,5.1,4.2C552,304.2,551.1,305.6,549.3,306.1L549.3,306.1z M556,312.5
		v-14.6l10.8,0v2.7h-7.8v3.1h5.9v2.7h-5.9v3.3h7.8v2.7H556z M577.8,312.5c-4,0.1-7.2-3.1-7.3-7.1c0-0.1,0-0.2,0-0.3
		c-0.1-4,3.1-7.2,7.1-7.3c0.1,0,0.1,0,0.2,0c2,0,3.9,0.7,5.4,1.9l-2,2.1c-1-0.8-2.2-1.2-3.4-1.2c-2.3-0.1-4.3,1.7-4.4,4
		c0,0.1,0,0.3,0,0.4c-0.1,1.2,0.4,2.4,1.2,3.2c0.9,0.8,2,1.3,3.2,1.2c1.2,0,2.4-0.4,3.4-1.2l2,2.1
		C581.7,311.9,579.7,312.6,577.8,312.5L577.8,312.5z M594.4,312.5c-4,0.1-7.2-3.1-7.3-7c0-0.1,0-0.2,0-0.3c-0.1-4,3.2-7.4,7.2-7.4
		c4-0.1,7.4,3.2,7.4,7.2c0,0.1,0,0.2,0,0.2c0.1,4-3.1,7.2-7,7.3C594.6,312.5,594.5,312.5,594.4,312.5L594.4,312.5z M594.4,309.8
		c1.2,0,2.4-0.4,3.2-1.3c0.8-0.9,1.3-2.1,1.2-3.3c0-1.2-0.4-2.4-1.2-3.3c-1.7-1.8-4.6-1.8-6.3,0c0,0,0,0,0,0
		c-0.8,0.9-1.3,2.1-1.2,3.3c0,1.2,0.4,2.4,1.2,3.3C592,309.3,593.2,309.8,594.4,309.8L594.4,309.8z M604.5,297.9l5.9,14.6h2.9
		l5.9-14.6H616l-4.2,10.7l-4.2-10.7H604.5z M623,312.5v-14.6l10.8,0v2.7H626v3.1h5.9v2.7H626v3.3h7.8v2.7H623z M641.2,303.7h4.1
		c1.2,0,1.8-0.6,1.8-1.6c0-1-0.6-1.5-1.8-1.5h-4.1L641.2,303.7z M647.1,306.1l3.7,6.4h-3.4l-3.5-6.1h-2.7v6.1h-2.9v-14.6h6.4
		c3.4,0,5.1,1.4,5.1,4.2C649.7,304.2,648.8,305.6,647.1,306.1L647.1,306.1z M652.9,297.9h3.4l3.4,4.8l3.5-4.8h3.4l-5.4,7.3v7.3h-2.9
		v-7.3L652.9,297.9z"/>
	<g id="Group_12" transform="translate(81.514 265.841)">
		<g id="Group_8" transform="translate(56.585 11.115)">
			<path id="Path_10" class="st0" d="M0,0l22.2,22.2V35L0,12.8C0,12.8,0,0,0,0z"/>
			<path id="Path_11" class="st0" d="M0,16.6l12.5,12.7V42L0,29.3V16.6z"/>
			<path id="Path_12" class="st0" d="M0,33.1l5,5v12.8l-5-5V33.1z"/>
		</g>
		<g id="Group_9" transform="translate(32.783 35.313)">
			<path id="Path_13" class="st0" d="M6.5,6.6L0,13.1v6.2l6.5-6.3h0l6.8,6.3l0-5.8L6.5,6.6L6.5,6.6z"/>
			<path id="Path_14" class="st0" d="M13.3,0H6.5l0,0H0v10.1l6.5-6.5v0l6.8,6.8l0,0L13.3,0z"/>
		</g>
		<g id="Group_10" transform="translate(0 11.115)">
			<path id="Path_15" class="st0" d="M22.2,0L0,22.2V35l22.2-22.2V0z"/>
			<path id="Path_16" class="st0" d="M22.2,16.6L9.7,29.2V42l12.5-12.7V16.6z"/>
			<path id="Path_17" class="st0" d="M22.2,33.1l-5,5v12.8l5-5V33.1z"/>
		</g>
		<g id="Group_11" transform="translate(32.759)">
			<path id="Path_19" class="st0" d="M6.5,26L6.5,26L6.5,26L6.5,26L6.5,26l-2.4,2.4h4.7L6.5,26L6.5,26z"/>
			<path id="Path_20" class="st0" d="M6.6,6.6L6.6,6.6l6.6,6.6v0.2l0,0V6.9L6.5,0l0,0l0,0l0,0L0,6.9v6.3l0,0l0,0L6.6,6.6z"/>
			<path id="Path_21" class="st0" d="M6.6,10.1L6.6,10.1L0,16.8l0,0v11.5l1.1,0h0l5.4-5.5l5.5,5.5h1.2V16.8l0,0v0L6.6,10.1z"/>
		</g>
	</g>
</g>
</svg>
