<svg xmlns="http://www.w3.org/2000/svg" width="279.245" height="219.64" viewBox="0 0 279.245 219.64">
  <g id="logo-ico" transform="translate(-44.189 -339.619)">
    <path id="Path_82" data-name="Path 82" d="M109.139,352.474v0L85.821,376.142l-.1.105V417.1l3.8-.081.121,0L108.934,397.5l19.395,19.627,0,0H132.6v-41h0v.06Z" transform="translate(74.549 23.076)" fill="#adbcbd"/>
    <path id="Path_83" data-name="Path 83" d="M115.905,353.706l78.788,78.753v45.32l-78.788-78.753v-45.32Z" transform="translate(128.74 25.287)" fill="#1c2f44"/>
    <path id="Path_84" data-name="Path 84" d="M115.905,374.685l44.327,44.848v45.32L115.905,420v-45.32Z" transform="translate(128.74 62.947)" fill="#adbcbd"/>
    <path id="Path_85" data-name="Path 85" d="M115.905,395.6l17.806,17.857v45.32l-17.806-17.857V395.6Z" transform="translate(128.74 100.486)" fill="#908070"/>
    <path id="Path_86" data-name="Path 86" d="M108.632,388.975,85.738,411.867v21.861l22.885-22.476v0h.041l24,22.474.062-20.526-24.091-24.167Z" transform="translate(74.586 88.601)" fill="#e5e0d8"/>
    <path id="Path_87" data-name="Path 87" d="M132.729,384.388H108.636v-.014l-22.9.014v35.737l22.894-22.892,0,.06,24.091,24.167,0,0Z" transform="translate(74.586 80.342)" fill="#908070"/>
    <path id="Path_88" data-name="Path 88" d="M122.977,353.706,44.189,432.459v45.32l78.788-78.753v-45.32Z" transform="translate(0 25.287)" fill="#1c2f44"/>
    <path id="Path_89" data-name="Path 89" d="M100.845,374.685,56.518,419.532v45.32L100.845,420v-45.32Z" transform="translate(22.132 62.947)" fill="#adbcbd"/>
    <path id="Path_90" data-name="Path 90" d="M83.812,395.6,66.006,413.453v45.32l17.806-17.857V395.6Z" transform="translate(39.165 100.486)" fill="#908070"/>
    <path id="Path_91" data-name="Path 91" d="M87.213,388.1l-.121,0-.023.023,11.011.017L106.2,380l.224-.225v-.012l.006.006.006-.006v.012l8.346,8.37,11.119.063-19.395-19.627Z" transform="translate(76.975 51.991)" fill="#e5e0d8"/>
    <path id="Path_92" data-name="Path 92" d="M99.369,372.582l-.006.006-.006-.006v.012l-.224.225-8.122,8.146,0,0h16.713l0,0-8.346-8.37Z" transform="translate(84.044 59.172)" fill="#908070"/>
    <path id="Path_93" data-name="Path 93" d="M109.153,362.972v-.007L132.617,386.4v.752l0,0V364.089l-23.786-24.464v-.005l0,0,0,0v.006l-23.12,24.6v22.266l0,0v-.006Z" transform="translate(74.532 0)" fill="#1c2f44"/>
    <path id="Path_94" data-name="Path 94" d="M132.615,371.4l-23.464-23.433v.007L85.709,371.489v12.864l.023-.023.1-.105,23.317-23.666v0l23.462,23.713V371.4Z" transform="translate(74.534 14.994)" fill="#e5e0d8"/>
  </g>
</svg>
