<svg xmlns="http://www.w3.org/2000/svg" width="607.56" height="62" viewBox="0 0 607.56 62">
  <g id="logo" transform="translate(-81.514 -265.841)">
    <g id="Group_7" data-name="Group 7" transform="translate(178.69 279.191)">
      <path id="Path_1" data-name="Path 1" d="M190.385,310.658l-9.028,2.648q0-1.555.042-5.25t.039-9.859q-.927,0-3.927-.012t-4.882-.014q-2.074,0-4.7.014t-3.4.012q0,5.729.029,9.464t.054,5.645h-9.028q.028-1.962.068-5.931t.041-13.841q0-3.109-.041-7.528c-.028-2.945-.05-3.369-.068-6.57l9.028-2.648q0,3.928-.041,7.309t-.042,6.656q.766,0,3.083.013t5.044.013q2.293,0,5.114-.013t3.668-.013q0-3.137-.039-6.656t-.042-7.309h9.028q-.055,4.609-.081,9.817t-.028,8.511q0,6.927.041,11.6C190.343,309.838,190.366,309.385,190.385,310.658Z" transform="translate(-155.584 -275.777)" fill="#e5e0d8"/>
      <path id="Path_2" data-name="Path 2" d="M198.6,313.305h-9.028q.028-2.316.07-6.709t.039-11.918q0-3.164-.028-8.006t-.081-9.886H198.6q-.028,3.737-.068,8.605t-.042,8.659q0,7.718.042,11.931T198.6,313.305Z" transform="translate(-144.981 -275.777)" fill="#e5e0d8"/>
      <path id="Path_3" data-name="Path 3" d="M234.709,294.434q-.03,2.07-.068,4.617t-.042,4.425q0,2.56.042,5.16t.039,4.753a23.957,23.957,0,0,1-2.508.222q-2.155.134-3.655.133a44.465,44.465,0,0,1-11.086-1.269,24.321,24.321,0,0,1-9.1-4.567,15.814,15.814,0,0,1-6.082-12.819,15.109,15.109,0,0,1,2.291-8.236,18.444,18.444,0,0,1,6.547-6.082,27.944,27.944,0,0,1,8.113-3.163,45.5,45.5,0,0,1,10.324-1.09q.708,0,1.269.013t1.077.014l.981,7.554h-2.318a40.652,40.652,0,0,0-5.946.463,24.405,24.405,0,0,0-5.673,1.5,12.649,12.649,0,0,0-5.414,3.956,9.04,9.04,0,0,0-1.977,5.645,9.982,9.982,0,0,0,1.569,5.728,11.147,11.147,0,0,0,3.995,3.626,17.275,17.275,0,0,0,4.214,1.542,26.411,26.411,0,0,0,4.76.642q0-.519-.014-3.683t-.068-9.083Z" transform="translate(-141.025 -275.861)" fill="#e5e0d8"/>
      <path id="Path_4" data-name="Path 4" d="M268.112,310.658l-9.028,2.648q0-1.555.042-5.25t.041-9.859q-.929,0-3.927-.012t-4.883-.014q-2.072,0-4.7.014t-3.4.012q0,5.729.029,9.464t.054,5.645h-9.028q.028-1.962.067-5.931t.042-13.841q0-3.109-.042-7.528c-.026-2.945-.049-3.369-.067-6.57l9.028-2.648q0,3.928-.042,7.309t-.041,6.656q.764,0,3.082.013t5.046.013q2.293,0,5.114-.013t3.668-.013q0-3.137-.041-6.656t-.042-7.309h9.028q-.053,4.609-.081,9.817T268,295.115q0,6.927.039,11.6C268.071,309.838,268.094,309.385,268.112,310.658Z" transform="translate(-131.337 -275.777)" fill="#e5e0d8"/>
      <path id="Path_5" data-name="Path 5" d="M295.535,289.754a11.487,11.487,0,0,1-2.322,7.132,13.577,13.577,0,0,1-6.337,4.541,22.493,22.493,0,0,1-5.012,1.256,42.483,42.483,0,0,1-5.611.436l.054,10.2h-9.028q.028-2.48.067-6.778t.042-12.914q0-3.08-.028-7.487t-.081-9.34q1.309-.028,2.92-.042t2.976-.012a65.386,65.386,0,0,1,9.3.517,20.755,20.755,0,0,1,6.047,1.8,12.48,12.48,0,0,1,5.187,4.3A11.157,11.157,0,0,1,295.535,289.754Zm-9.273.573a6.922,6.922,0,0,0-.942-3.655,6.564,6.564,0,0,0-2.85-2.482,7.715,7.715,0,0,0-2.741-.8,29.025,29.025,0,0,0-2.96-.15h-.819q0,.382-.028,3.176t-.026,4.542v6.736h.872a20.47,20.47,0,0,0,2.932-.231,8.54,8.54,0,0,0,2.658-.778,7.145,7.145,0,0,0,2.906-2.414A6.976,6.976,0,0,0,286.262,290.327Z" transform="translate(-120.74 -275.79)" fill="#e5e0d8"/>
      <path id="Path_6" data-name="Path 6" d="M330.478,295.3a20.33,20.33,0,0,1-1.566,8.046,18.264,18.264,0,0,1-4.432,6.329,17.646,17.646,0,0,1-6.056,3.722,20.913,20.913,0,0,1-7.171,1.214,21.376,21.376,0,0,1-7.092-1.16,17.317,17.317,0,0,1-5.918-3.477,18.488,18.488,0,0,1-4.581-6.381A20.34,20.34,0,0,1,292,295.273a20.726,20.726,0,0,1,1.378-7.705,18.153,18.153,0,0,1,4.186-6.259,17.416,17.416,0,0,1,6.053-3.927,20.661,20.661,0,0,1,7.582-1.364,21.237,21.237,0,0,1,7.432,1.269,17.515,17.515,0,0,1,6.014,3.722,17.788,17.788,0,0,1,4.378,6.425A21.1,21.1,0,0,1,330.478,295.3Zm-9.272.287a16.792,16.792,0,0,0-.928-5.463,10.729,10.729,0,0,0-2.836-4.48,8.994,8.994,0,0,0-2.755-1.8,9.4,9.4,0,0,0-6.926.013,9.33,9.33,0,0,0-2.919,1.974,11.531,11.531,0,0,0-2.632,4.236,15.017,15.017,0,0,0-.942,5.244,15.238,15.238,0,0,0,.942,5.449,10.96,10.96,0,0,0,2.741,4.169,9.262,9.262,0,0,0,2.81,1.824,9.271,9.271,0,0,0,6.913.028,9.157,9.157,0,0,0,2.877-1.879,11.307,11.307,0,0,0,2.659-4.06A13.961,13.961,0,0,0,321.206,295.586Z" transform="translate(-113.03 -276.017)" fill="#e5e0d8"/>
      <path id="Path_7" data-name="Path 7" d="M336.053,313.305h-9.028q.028-2.316.068-6.709t.041-11.918q0-3.164-.028-8.006t-.081-9.886h9.028q-.028,3.737-.07,8.605t-.041,8.659q0,7.718.041,11.931T336.053,313.305Z" transform="translate(-102.103 -275.777)" fill="#e5e0d8"/>
      <path id="Path_8" data-name="Path 8" d="M376.251,276.91q-.055,4.751-.081,9.539t-.028,7.52q0,6.2.041,11.11t.041,6.223l-6.518,2.645q-6.9-9.17-12.777-16.338t-7.159-8.667l-.136.055q0,5.862.068,14.193t.068,10.238h-8.4q.028-1.364.067-6t.042-11.535q0-2.81-.028-7.214t-.081-9.45l7.064-2.836q1.2,1.446,7.117,8.757t12.328,14.841l.109-.056q0-3.765-.081-11.157t-.083-11.867Z" transform="translate(-97.628 -275.9)" fill="#e5e0d8"/>
      <path id="Path_9" data-name="Path 9" d="M404.791,284.273q-1.145,0-4.364-.028t-7.772-.026q-.057,4.282-.083,6.873t-.028,6.709q0,4.664.042,9.013c.026,2.9.05,2.411.068,3.83l-9.027,2.648q.028-2.047.054-6.232t.028-9.286v-6.409q0-2.647-.054-7.146-4.475,0-7.992.026t-4.172.028v-7.445q2.127,0,6.955.014t9.627.013q5.538,0,10.6-.013t6.123-.014Z" transform="translate(-88.231 -275.764)" fill="#e5e0d8"/>
    </g>
    <path id="Path_98" data-name="Path 98" d="M1.2,0V-14.648H7.588q5.127,0,5.127,4.219,0,4.375-5.117,4.375H4.131V0Zm2.93-8.789h4.1Q10-8.818,10.049-10.4,10-11.846,8.262-11.9H4.131ZM16.334,0V-14.639l10.762-.01v2.734H19.264v3.125h5.869v2.725H19.264v3.33h7.813V0ZM34.475-8.789h4.1q1.768-.029,1.816-1.611-.049-1.445-1.787-1.5H34.475Zm5.889,2.4L44.016,0H40.656L37.15-6.055H34.475V0h-2.93V-14.648h6.387q5.127,0,5.127,4.219Q43.059-7.256,40.363-6.387ZM47.029,0V-14.648h10.3v2.734H49.959v3.125H55.4v2.725H49.959V0ZM67.543,0a7.083,7.083,0,0,1-5.225-2.1,7.1,7.1,0,0,1-2.1-5.22,7.092,7.092,0,0,1,2.1-5.225,7.092,7.092,0,0,1,5.225-2.1,7.092,7.092,0,0,1,5.225,2.1,7.092,7.092,0,0,1,2.1,5.225,7.092,7.092,0,0,1-2.1,5.225A7.092,7.092,0,0,1,67.543,0Zm.01-2.734a4.115,4.115,0,0,0,3.164-1.318,4.633,4.633,0,0,0,1.221-3.271A4.633,4.633,0,0,0,70.717-10.6a4.138,4.138,0,0,0-3.184-1.318A4.115,4.115,0,0,0,64.369-10.6a4.633,4.633,0,0,0-1.221,3.271,4.633,4.633,0,0,0,1.221,3.271A4.138,4.138,0,0,0,67.553-2.734ZM81.475-8.789h4.1q1.768-.029,1.816-1.611-.049-1.445-1.787-1.5H81.475Zm5.889,2.4L91.016,0H87.656L84.15-6.055H81.475V0h-2.93V-14.648h6.387q5.127,0,5.127,4.219Q90.059-7.256,87.363-6.387ZM94.039,0V-14.648h.977l6.348,7.227,6.357-7.227h.977V0h-2.93l-.01-8.5-4.395,4.883L96.969-8.5V0Zm18.307,0,5.859-14.648h2.93L126.984-.01,123.869,0l-.879-2.246H116.35L115.471,0Zm7.4-10.742-2.227,5.566h4.395ZM130.672,0V-14.648h.977l9.18,9.18v-9.18h2.93V0h-1.074L133.6-9.082V0Zm24.215,0a7.127,7.127,0,0,1-5.21-2.1,7.1,7.1,0,0,1-2.1-5.249,7.1,7.1,0,0,1,2.109-5.19,7.06,7.06,0,0,1,5.205-2.1,7.925,7.925,0,0,1,5.381,1.953l-1.953,2.139a5.4,5.4,0,0,0-3.428-1.172,4.3,4.3,0,0,0-3.179,1.23A4.259,4.259,0,0,0,150.5-7.373a4.393,4.393,0,0,0,1.221,3.242,4.324,4.324,0,0,0,3.184,1.2,5.249,5.249,0,0,0,3.408-1.162l1.953,2.139A7.9,7.9,0,0,1,154.887,0Zm10,0V-14.639l10.762-.01v2.734h-7.832v3.125h5.869v2.725h-5.869v3.33h7.813V0ZM14.648,19h-3.33l-1.2-1.465a5.894,5.894,0,0,1-1.846,1.152,6.544,6.544,0,0,1-2.324.371,5.126,5.126,0,0,1-4.023-1.5A3.884,3.884,0,0,1,.879,14.879,4.034,4.034,0,0,1,1.7,12.4,6.709,6.709,0,0,1,4.15,10.494,6.4,6.4,0,0,1,3.1,8.839,3.931,3.931,0,0,1,2.773,7.35a2.811,2.811,0,0,1,1.04-2.2,4.384,4.384,0,0,1,2.964-.9,3.979,3.979,0,0,1,2.852.947,3.072,3.072,0,0,1,1,2.314,2.94,2.94,0,0,1-.518,1.65,7,7,0,0,1-2.09,1.768l1.992,2.627a9.1,9.1,0,0,0,.7-1.826l2.383.762a15.24,15.24,0,0,1-.645,1.929,5.069,5.069,0,0,1-.684,1.118Zm-8-9.727.742-.566a1.485,1.485,0,0,0,.723-1.162,1.105,1.105,0,0,0-.347-.85,1.449,1.449,0,0,0-1.021-.322,1.463,1.463,0,0,0-.977.278.894.894,0,0,0-.322.708,1.845,1.845,0,0,0,.527,1.133ZM5.576,12.252A3.715,3.715,0,0,0,4.16,13.4a2.387,2.387,0,0,0-.469,1.377,1.927,1.927,0,0,0,.581,1.45,2.146,2.146,0,0,0,1.558.562,3.132,3.132,0,0,0,1.24-.254,5.411,5.411,0,0,0,1.3-.84ZM30,10.211h4.1q1.768-.029,1.816-1.611-.049-1.445-1.787-1.5H30Zm5.889,2.4L39.543,19H36.184l-3.506-6.055H30V19h-2.93V4.352h6.387q5.127,0,5.127,4.219Q38.586,11.744,35.891,12.613ZM42.527,19V4.361l10.762-.01V7.086H45.457v3.125h5.869v2.725H45.457v3.33H53.27V19Zm21.8,0a7.19,7.19,0,0,1-7.314-7.354A7.2,7.2,0,0,1,64.33,4.352,7.925,7.925,0,0,1,69.711,6.3L67.758,8.443A5.4,5.4,0,0,0,64.33,7.271a4.176,4.176,0,0,0-4.385,4.355,4.393,4.393,0,0,0,1.221,3.242,4.324,4.324,0,0,0,3.184,1.2,5.249,5.249,0,0,0,3.408-1.162l1.953,2.139A7.9,7.9,0,0,1,64.33,19Zm16.617,0a7.182,7.182,0,0,1-7.324-7.324,7.325,7.325,0,1,1,14.648,0A7.174,7.174,0,0,1,80.947,19Zm.01-2.734a4.115,4.115,0,0,0,3.164-1.318,4.633,4.633,0,0,0,1.221-3.271A4.633,4.633,0,0,0,84.121,8.4a4.48,4.48,0,0,0-6.348,0,4.633,4.633,0,0,0-1.221,3.271,4.633,4.633,0,0,0,1.221,3.271A4.138,4.138,0,0,0,80.957,16.266ZM91.051,4.352,96.92,19h2.93L105.7,4.352h-3.125L98.336,15.084,94.176,4.352ZM109.592,19V4.361l10.762-.01V7.086h-7.832v3.125h5.869v2.725h-5.869v3.33h7.813V19Zm18.141-8.789h4.1q1.768-.029,1.816-1.611-.049-1.445-1.787-1.5h-4.131Zm5.889,2.4L137.273,19h-3.359l-3.506-6.055h-2.676V19H124.8V4.352h6.387q5.127,0,5.127,4.219Q136.316,11.744,133.621,12.613Zm5.816-8.262h3.438l3.4,4.785,3.477-4.785h3.359l-5.371,7.324V19h-2.93V11.676Z" transform="translate(513.429 293.522)" fill="#e5e0d8"/>
    <g id="Group_12" data-name="Group 12" transform="translate(81.514 265.841)">
      <g id="Group_8" data-name="Group 8" transform="translate(56.585 11.115)">
        <path id="Path_10" data-name="Path 10" d="M124.644,274.313l22.24,22.23v12.793l-22.24-22.23V274.313Z" transform="translate(-124.644 -274.313)" fill="#e5e0d8"/>
        <path id="Path_11" data-name="Path 11" d="M124.644,286.929l12.513,12.66v12.793l-12.513-12.66V286.929Z" transform="translate(-124.644 -270.377)" fill="#e5e0d8"/>
        <path id="Path_12" data-name="Path 12" d="M124.644,299.505l5.026,5.041v12.793l-5.026-5.041V299.505Z" transform="translate(-124.644 -266.454)" fill="#e5e0d8"/>
      </g>
      <g id="Group_9" data-name="Group 9" transform="translate(32.783 35.313)">
        <path id="Path_13" data-name="Path 13" d="M112.964,295.524l-6.463,6.462v6.171l6.46-6.344h.012l6.775,6.344.017-5.794-6.8-6.822Z" transform="translate(-106.501 -288.894)" fill="#e5e0d8"/>
        <path id="Path_14" data-name="Path 14" d="M119.766,292.761h-6.8v0l-6.464,0v10.088l6.463-6.462v.017l6.8,6.822h0Z" transform="translate(-106.501 -292.757)" fill="#e5e0d8"/>
      </g>
      <g id="Group_10" data-name="Group 10" transform="translate(0 11.115)">
        <path id="Path_15" data-name="Path 15" d="M103.754,274.313l-22.24,22.23v12.793l22.24-22.23V274.313Z" transform="translate(-81.514 -274.313)" fill="#e5e0d8"/>
        <path id="Path_16" data-name="Path 16" d="M101.441,286.929l-12.513,12.66v12.793l12.513-12.66V286.929Z" transform="translate(-79.201 -270.377)" fill="#e5e0d8"/>
        <path id="Path_17" data-name="Path 17" d="M99.661,299.505l-5.026,5.041v12.793l5.026-5.041V299.505Z" transform="translate(-77.42 -266.454)" fill="#e5e0d8"/>
      </g>
      <g id="Group_11" data-name="Group 11" transform="translate(32.759)">
        <path id="Path_18" data-name="Path 18" d="M107.342,288.769h-.034l-.006.007,3.108,0,2.293-2.3.063-.063v0l0,0,0,0v0l2.356,2.363,3.139.018-5.475-5.54Z" transform="translate(-106.228 -260.407)" fill="#1c2f44"/>
        <path id="Path_19" data-name="Path 19" d="M112.03,285.665l0,0,0,0v0l-.063.063-2.293,2.3h4.715l-2.356-2.363Z" transform="translate(-105.489 -259.657)" fill="#e5e0d8"/>
        <path id="Path_20" data-name="Path 20" d="M113.1,272.433v0l6.623,6.615v.212h0v-6.511l-6.714-6.906v0h0v0l-6.526,6.944v6.285h0v0Z" transform="translate(-106.483 -265.841)" fill="#e5e0d8"/>
        <path id="Path_21" data-name="Path 21" d="M113.1,273.572h0l-6.582,6.681-.029.03v11.532l1.073-.023h.034l5.447-5.51,5.475,5.54h1.206V280.248h0v.017Z" transform="translate(-106.482 -263.429)" fill="#e5e0d8"/>
        <path id="Path_22" data-name="Path 22" d="M119.725,277.479l-6.623-6.615v0l-6.617,6.637v3.631l.006-.007.029-.03,6.582-6.681h0l6.623,6.694v-3.631Z" transform="translate(-106.483 -264.274)" fill="#1c2f44"/>
      </g>
    </g>
  </g>
</svg>
