<svg xmlns="http://www.w3.org/2000/svg" width="52.14" height="41.238" viewBox="0 0 52.14 41.238">
  <path id="Path_97" data-name="Path 97" d="M-11.929-106.966c-8.69,6.162-14.694,15.958-14.694,26.86,0,9.164,5.688,14.378,12.166,14.378A10.755,10.755,0,0,0-3.713-76.472c0-5.846-4.108-9.954-9.322-9.954a9.393,9.393,0,0,0-2.686.316c.948-5.372,6.32-11.85,11.376-14.852Zm29.23,0C8.611-100.8,2.607-91.008,2.607-80.106c0,9.164,5.688,14.378,12.166,14.378A10.755,10.755,0,0,0,25.517-76.472c0-5.846-4.108-9.954-9.322-9.954a9.393,9.393,0,0,0-2.686.316c.948-5.372,6.32-11.85,11.376-14.852Z" transform="translate(26.623 106.966)" fill="#1c2f44"/>
</svg>
