<svg xmlns="http://www.w3.org/2000/svg" width="52.298" height="41.396" viewBox="0 0 52.298 41.396">
  <path id="Path_98" data-name="Path 98" d="M-17.459-65.57c8.69-6.162,14.852-16.116,14.852-27.018,0-9.164-5.846-14.378-12.324-14.378a10.892,10.892,0,0,0-10.744,10.9c0,5.846,4.108,9.954,9.48,9.954a10.314,10.314,0,0,0,2.686-.474c-1.106,5.372-6.32,11.85-11.376,14.852Zm29.23,0c8.69-6.162,14.852-16.116,14.852-27.018,0-9.164-5.846-14.378-12.324-14.378a10.892,10.892,0,0,0-10.744,10.9c0,5.846,4.108,9.954,9.48,9.954a10.314,10.314,0,0,0,2.686-.474C14.615-81.212,9.4-74.734,4.345-71.732Z" transform="translate(25.675 106.966)" fill="#1c2f44"/>
</svg>
